<svg xmlns="http://www.w3.org/2000/svg" xmlns:xlink="http://www.w3.org/1999/xlink" viewBox="0 0 500 500" width="500" height="500" preserveAspectRatio="xMidYMid meet" style="width: 100%; height: 100%; transform: translate3d(0px, 0px, 0px); content-visibility: visible;"><defs><clipPath id="__lottie_element_248"><rect width="500" height="500" x="0" y="0"></rect></clipPath><clipPath id="__lottie_element_253"><path d="M0,0 L500,0 L500,500 L0,500z"></path></clipPath><g id="__lottie_element_256"><g transform="matrix(1,0,0,1,250,250)" opacity="1" style="display: block;"><g opacity="1" transform="matrix(1,0,0,1,0,0)"><path fill="rgb(237,221,214)" fill-opacity="1" d=" M250.97500610351562,0 C250.97500610351562,45.8129997253418 238.7010040283203,88.77200317382812 217.2209930419922,125.75599670410156 C216.41400146484375,127.15599822998047 215.55099487304688,128.55499267578125 214.69000244140625,129.9550018310547 C212.697998046875,133.29299926757812 210.5989990234375,136.63099670410156 208.39199829101562,139.86099243164062 C207.4770050048828,141.20700073242188 206.56199645996094,142.55299377441406 205.53900146484375,143.8990020751953 C172.80799865722656,190.78799438476562 124.35700225830078,225.77999877929688 67.93900299072266,241.66099548339844 C66.75499725341797,241.98399353027344 65.51599884033203,242.3070068359375 64.33200073242188,242.6300048828125 C43.82099914550781,248.06700134277344 22.232999801635742,250.97500610351562 0,250.97500610351562 C-86.72699737548828,250.97500610351562 -163.22500610351562,206.99200439453125 -208.17599487304688,140.0760040283203 C-212.4290008544922,133.88499450683594 -216.35899353027344,127.4260025024414 -219.96600341796875,120.85800170898438 C-239.72300720214844,85.00499725341797 -250.97500610351562,43.82099914550781 -250.97500610351562,0 C-250.97500610351562,-138.6230010986328 -138.6230010986328,-250.97500610351562 0,-250.97500610351562 C138.6230010986328,-250.97500610351562 250.97500610351562,-138.6230010986328 250.97500610351562,0z"></path></g></g></g><mask id="__lottie_element_256_1" mask-type="alpha"><use xlink:href="#__lottie_element_256"></use></mask></defs><g clip-path="url(#__lottie_element_248)"><g transform="matrix(1,0,0,1,249.2310028076172,250)" opacity="1" style="display: block;"><g opacity="1" transform="matrix(1,0,0,1,0,0)"><path fill="rgb(237,221,214)" fill-opacity="1" d=" M250.97500610351562,0 C250.97500610351562,45.8129997253418 238.7010040283203,88.77200317382812 217.2209930419922,125.75599670410156 C216.41400146484375,127.15599822998047 215.55099487304688,128.55499267578125 214.69000244140625,129.9550018310547 C212.697998046875,133.29299926757812 210.5989990234375,136.63099670410156 208.39199829101562,139.86099243164062 C207.4770050048828,141.20700073242188 206.56199645996094,142.55299377441406 205.53900146484375,143.8990020751953 C172.80799865722656,190.78799438476562 124.35700225830078,225.77999877929688 67.93900299072266,241.66099548339844 C66.75499725341797,241.98399353027344 65.51599884033203,242.3070068359375 64.33200073242188,242.6300048828125 C43.82099914550781,248.06700134277344 22.232999801635742,250.97500610351562 0,250.97500610351562 C-86.72699737548828,250.97500610351562 -163.22500610351562,206.99200439453125 -208.17599487304688,140.0760040283203 C-212.4290008544922,133.88499450683594 -216.35899353027344,127.4260025024414 -219.96600341796875,120.85800170898438 C-239.72300720214844,85.00499725341797 -250.97500610351562,43.82099914550781 -250.97500610351562,0 C-250.97500610351562,-138.6230010986328 -138.6230010986328,-250.97500610351562 0,-250.97500610351562 C138.6230010986328,-250.97500610351562 250.97500610351562,-138.6230010986328 250.97500610351562,0z"></path></g></g><g mask="url(#__lottie_element_256_1)" style="display: block;"><g clip-path="url(#__lottie_element_253)" transform="matrix(1,0,0,1,0,0)" opacity="1"><g transform="matrix(0.9993031024932861,0.03732581064105034,-0.03732581064105034,0.9993031024932861,275.1693420410156,265.64129638671875)" opacity="1" style="display: block;"><g opacity="1" transform="matrix(1,0,0,1,0,0)"><path fill="rgb(0,0,0)" fill-opacity="1" d=" M-137.16200256347656,-14.91100025177002 C-137.16200256347656,-14.91100025177002 -164.052001953125,-157.56399536132812 -59.66299819946289,-183.68099975585938 C44.72600173950195,-209.7969970703125 51.007999420166016,-61.63800048828125 51.007999420166016,-61.63800048828125 C51.007999420166016,-61.63800048828125 164.61000061035156,-40.02199935913086 165.3509979248047,70.44599914550781 C166.27699279785156,208.51100158691406 32.8380012512207,185.2989959716797 32.8380012512207,185.2989959716797 C32.8380012512207,185.2989959716797 -93.54499816894531,133.822998046875 -93.54499816894531,133.822998046875 C-93.54499816894531,133.822998046875 -220.13800048828125,64.88300323486328 -137.16200256347656,-14.91100025177002z"></path></g></g><g transform="matrix(1,0,0,1,-0.000002197265530412551,33.22291946411133)" opacity="1" style="display: block;"><g opacity="1" transform="matrix(1,0,0,1,247.43699645996094,385.0799865722656)"><path fill="rgb(247,115,79)" fill-opacity="1" d=" M206.85699462890625,5.769000053405762 C174.12600708007812,52.65800094604492 156.67599487304688,114.6510009765625 100.25800323486328,130.53199768066406 C99.0739974975586,130.85499572753906 72.83499908447266,132.17799377441406 71.6510009765625,132.50100708007812 C51.13999938964844,137.93800354003906 22.55299949645996,151.84500122070312 0.3190000057220459,151.84500122070312 C-86.40799713134766,151.84500122070312 -154.28900146484375,81.21499633789062 -206.85699462890625,1.9470000267028809 C-173.15699768066406,-44.1349983215332 -130.89700317382812,-79.01899719238281 -102.1500015258789,-91.4010009765625 C-59.62099838256836,-109.70500183105469 7.833000183105469,-121.97899627685547 70.11900329589844,-104.16000366210938 C70.27999877929688,-104.10600280761719 70.49600219726562,-104.10600280761719 70.71099853515625,-104.052001953125 C89.44499969482422,-98.66899871826172 107.64099884033203,-90.59400177001953 124.5989990234375,-79.12699890136719 C161.25999450683594,-54.362998962402344 187.96099853515625,-25.615999221801758 206.85699462890625,5.769000053405762z"></path></g><g opacity="1" transform="matrix(1,0,0,1,236.7209930419922,258.9429931640625)"><path fill="rgb(252,163,151)" fill-opacity="1" d=" M-37.26100158691406,-21.3439998626709 C-37.26100158691406,-21.3439998626709 -37.250999450683594,-19.819000244140625 -37.250999450683594,-19.819000244140625 C-37.250999450683594,-19.819000244140625 -35.96799850463867,8.928999900817871 -35.96799850463867,8.928999900817871 C-35.96799850463867,8.928999900817871 -35.05400085449219,31.47100067138672 -35.05400085449219,31.47100067138672 C-35.05400085449219,31.47100067138672 -36.97999954223633,36.71200180053711 -10.739999771118164,35.01100158691406 C24.427000045776367,32.59700012207031 35.763999938964844,17.48900032043457 35.763999938964844,17.48900032043457 C35.763999938964844,17.48900032043457 37.26100158691406,-35.35100173950195 37.26100158691406,-35.35100173950195 C37.26100158691406,-35.35100173950195 26.600000381469727,-33.319000244140625 26.600000381469727,-33.319000244140625 C26.600000381469727,-33.319000244140625 -37.26100158691406,-21.3439998626709 -37.26100158691406,-21.3439998626709z"></path></g><g opacity="1" transform="matrix(1,0,0,1,231.39599609375,246.80299377441406)"><path fill="rgb(0,0,0)" fill-opacity="1" d=" M-31.926000595092773,-7.678999900817871 C-31.926000595092773,-7.678999900817871 -30.64299964904785,21.069000244140625 -30.64299964904785,21.069000244140625 C-13.555000305175781,18.993999481201172 17.54800033569336,11.595999717712402 30.11199951171875,-15.284000396728516 C31.077999114990234,-17.4689998626709 31.718000411987305,-19.43400001525879 31.926000595092773,-21.069000244140625 C31.926000595092773,-21.069000244140625 -31.81999969482422,-8.114999771118164 -31.81999969482422,-8.114999771118164 C-31.81999969482422,-8.114999771118164 -31.926000595092773,-7.678999900817871 -31.926000595092773,-7.678999900817871z"></path></g><g opacity="1" transform="matrix(1,0,0,1,391.1300048828125,385.11199951171875)"><path fill="rgb(247,115,79)" fill-opacity="1" d=" M77.98600006103516,-8.407999992370605 C78.05400085449219,-8.284000396728516 78.05000305175781,-8.130999565124512 77.9749984741211,-8.01099967956543 C75.94200134277344,-4.73799991607666 73.8030014038086,-1.4670000076293945 71.55500030517578,1.7000000476837158 C70.6050033569336,3.0460000038146973 69.65399932861328,4.392000198364258 68.59200286865234,5.73799991607666 C34.60300064086914,52.62699890136719 2.2899999618530273,125.61900329589844 -56.297000885009766,141.5 C-57.362998962402344,141.77999877929688 -76.47100067138672,128.05999755859375 -77.54900360107422,128.33999633789062 C-77.7979965209961,128.40499877929688 -78.03800201416016,104.21499633789062 -78.03399658203125,103.95700073242188 C-78.03399658203125,103.95700073242188 -74.46499633789062,-104.35299682617188 -74.46499633789062,-104.35299682617188 C-74.46499633789062,-104.35299682617188 -74.072998046875,-104.30000305175781 -73.4020004272461,-104.19200134277344 C-73.23400115966797,-104.13800048828125 -73.01100158691406,-104.13800048828125 -72.78700256347656,-104.08399963378906 C-59.92900085449219,-101.98400115966797 24.31599998474121,-85.94200134277344 69.54199981689453,-22.094999313354492 C72.57499694824219,-17.899999618530273 75.33599853515625,-13.28600025177002 77.98600006103516,-8.407999992370605z"></path></g><g opacity="1" transform="matrix(1,0,0,1,231.78500366210938,286.4949951171875)"><path fill="rgb(119,114,211)" fill-opacity="1" d=" M-13.366999626159668,10.559000015258789 C-29.216999053955078,10.559000015258789 -41.025001525878906,7.730000019073486 -42.01100158691406,7.486000061035156 C-43.45399856567383,7.129000186920166 -44.332000732421875,5.672999858856201 -43.97700119018555,4.230000019073486 C-43.619998931884766,2.7869999408721924 -42.152000427246094,1.9110000133514404 -40.720001220703125,2.259999990463257 C-40.242000579833984,2.38100004196167 7.203999996185303,13.699999809265137 39.77799987792969,-10.04699993133545 C40.979000091552734,-10.913999557495117 42.65999984741211,-10.656999588012695 43.540000915527344,-9.454999923706055 C44.415000915527344,-8.253999710083008 44.150001525878906,-6.572000026702881 42.94900131225586,-5.693999767303467 C25.073999404907227,7.333000183105469 3.5510001182556152,10.559000015258789 -13.366999626159668,10.559000015258789z"></path></g><g opacity="1" transform="matrix(1,0,0,1,113.9990005493164,412.17401123046875)"><path fill="rgb(119,114,211)" fill-opacity="1" d=" M13.178000450134277,-36.452999114990234 C12.902999877929688,-36.1349983215332 -12.809000015258789,-8.565999984741211 -7.928999900817871,40.99599838256836 C-9.472999572753906,40.000999450683594 -10.96399974822998,38.952999114990234 -12.45300006866455,37.85100173950195 C-12.878999710083008,37.57500076293945 -13.25,37.24599838256836 -13.675000190734863,36.91600036621094 C-16.83799934387207,-12.293999671936035 8.980999946594238,-39.80799865722656 9.3100004196167,-40.17900085449219 C10.35099983215332,-41.237998962402344 12.020000457763672,-41.263999938964844 13.133999824523926,-40.2760009765625 C14.192999839782715,-39.23500061035156 14.218999862670898,-37.512001037597656 13.178000450134277,-36.452999114990234z"></path></g></g><g transform="matrix(0.9999510049819946,0.009896190837025642,-0.009896190837025642,0.9999510049819946,2.3847177028656006,30.924945831298828)" opacity="1" style="display: block;"><g opacity="1" transform="matrix(1,0,0,1,241.39500427246094,168.82000732421875)"><path fill="rgb(252,163,151)" fill-opacity="1" d=" M-52.654998779296875,-64.23699951171875 C-52.654998779296875,-64.23699951171875 -85.36000061035156,10.61400032043457 -73.5770034790039,52.66699981689453 C-61.79399871826172,94.71900177001953 -23.481000900268555,88.0999984741211 -0.5569999814033508,79.97100067138672 C22.367000579833984,71.84200286865234 33.007999420166016,57.784000396728516 33.007999420166016,57.784000396728516 C33.007999420166016,57.784000396728516 54.41999816894531,65.04399871826172 68.74299621582031,45.13199996948242 C83.06600189208984,25.219999313354492 74.24800109863281,2.3529999256134033 62.020999908447266,-2.88700008392334 C49.79399871826172,-8.126999855041504 35.25400161743164,0.7009999752044678 35.25400161743164,0.7009999752044678 C35.25400161743164,0.7009999752044678 46.650001525878906,-21.05299949645996 46.650001525878906,-21.05299949645996 C46.650001525878906,-21.05299949645996 -1.2940000295639038,-131.6020050048828 -52.654998779296875,-64.23699951171875z"></path></g><g opacity="1" transform="matrix(1,0,0,1,186.95700073242188,126.89399719238281)"><path fill="rgb(0,0,0)" fill-opacity="1" d=" M-7.458000183105469,5.02400016784668 C-8.604000091552734,5.02400016784668 -9.666999816894531,4.289000034332275 -10.027000427246094,3.13700008392334 C-10.470999717712402,1.718000054359436 -9.678999900817871,0.20600000023841858 -8.262999534606934,-0.23499999940395355 C-8.262999534606934,-0.23499999940395355 6.6539998054504395,-4.8979997634887695 6.6539998054504395,-4.8979997634887695 C8.079000473022461,-5.3480000495910645 9.579999923706055,-4.557000160217285 10.027000427246094,-3.134999990463257 C10.470999717712402,-1.715000033378601 9.680000305175781,-0.20399999618530273 8.262999534606934,0.23800000548362732 C8.262999534606934,0.23800000548362732 -6.6539998054504395,4.901000022888184 -6.6539998054504395,4.901000022888184 C-6.921999931335449,4.985000133514404 -7.192999839782715,5.02400016784668 -7.458000183105469,5.02400016784668z"></path></g><g opacity="1" transform="matrix(1,0,0,1,289.7170104980469,191.14700317382812)"><path fill="rgb(0,0,0)" fill-opacity="1" d=" M-11.538000106811523,13.307999610900879 C-12.263999938964844,13.307999610900879 -12.98900032043457,13.015999794006348 -13.520000457763672,12.437999725341797 C-14.52400016784668,11.345000267028809 -14.456000328063965,9.642000198364258 -13.359999656677246,8.635000228881836 C-13.359999656677246,8.635000228881836 9.717000007629395,-12.598999977111816 9.717000007629395,-12.598999977111816 C10.8100004196167,-13.602999687194824 12.515000343322754,-13.531999588012695 13.520000457763672,-12.439000129699707 C14.52400016784668,-11.345000267028809 14.456000328063965,-9.642000198364258 13.359999656677246,-8.635000228881836 C13.359999656677246,-8.635000228881836 -9.717000007629395,12.598999977111816 -9.717000007629395,12.598999977111816 C-10.232000350952148,13.074999809265137 -10.88599967956543,13.307999610900879 -11.538000106811523,13.307999610900879z"></path></g><g opacity="1" transform="matrix(1,0,0,1,294.6719970703125,195.9459991455078)"><path fill="rgb(0,0,0)" fill-opacity="1" d=" M6.882999897003174,5.715000152587891 C6.5229997634887695,5.715000152587891 6.15500020980835,5.640999794006348 5.802999973297119,5.488999843597412 C5.802999973297119,5.488999843597412 -7.968999862670898,-0.5569999814033508 -7.968999862670898,-0.5569999814033508 C-9.32800006866455,-1.156999945640564 -9.947999954223633,-2.74399995803833 -9.35200023651123,-4.105000019073486 C-8.755000114440918,-5.464000225067139 -7.166999816894531,-6.084000110626221 -5.802999973297119,-5.48799991607666 C-5.802999973297119,-5.48799991607666 7.968999862670898,0.5580000281333923 7.968999862670898,0.5580000281333923 C9.32800006866455,1.156999945640564 9.947999954223633,2.744999885559082 9.35200023651123,4.10699987411499 C8.906999588012695,5.116000175476074 7.918000221252441,5.715000152587891 6.882999897003174,5.715000152587891z"></path></g><g opacity="1" transform="matrix(1,0,0,1,183.9290008544922,156.08299255371094)"><path fill="rgb(0,0,0)" fill-opacity="1" d=" M0.12399999797344208,13.59000015258789 C-0.05700000002980232,13.59000015258789 -0.2409999966621399,13.571999549865723 -0.42500001192092896,13.53499984741211 C-1.88100004196167,13.232000350952148 -2.818000078201294,11.809000015258789 -2.515000104904175,10.35200023651123 C-2.515000104904175,10.35200023651123 0.23499999940395355,-2.8989999294281006 0.23499999940395355,-2.8989999294281006 C0.23499999940395355,-2.8989999294281006 -5.175000190734863,-9.133999824523926 -5.175000190734863,-9.133999824523926 C-6.150000095367432,-10.255999565124512 -6.0289998054504395,-11.956999778747559 -4.9070000648498535,-12.930000305175781 C-3.7850000858306885,-13.90999984741211 -2.0840001106262207,-13.781999588012695 -1.1109999418258667,-12.661999702453613 C-1.1109999418258667,-12.661999702453613 5.173999786376953,-5.420000076293945 5.173999786376953,-5.420000076293945 C5.72599983215332,-4.7870001792907715 5.948999881744385,-3.931999921798706 5.7779998779296875,-3.1089999675750732 C5.7779998779296875,-3.1089999675750732 2.757999897003174,11.446000099182129 2.757999897003174,11.446000099182129 C2.492000102996826,12.718000411987305 1.371999979019165,13.59000015258789 0.12399999797344208,13.59000015258789z"></path></g><g opacity="1" transform="matrix(1,0,0,1,229.05999755859375,158.3800048828125)"><path fill="rgb(0,0,0)" fill-opacity="1" d=" M0.12399999797344208,13.590999603271484 C-0.05700000002980232,13.590999603271484 -0.2409999966621399,13.572999954223633 -0.42500001192092896,13.53600025177002 C-1.88100004196167,13.234000205993652 -2.818000078201294,11.809000015258789 -2.515000104904175,10.352999687194824 C-2.515000104904175,10.352999687194824 0.23499999940395355,-2.8980000019073486 0.23499999940395355,-2.8980000019073486 C0.23499999940395355,-2.8980000019073486 -5.175000190734863,-9.133000373840332 -5.175000190734863,-9.133000373840332 C-6.150000095367432,-10.255000114440918 -6.0289998054504395,-11.956000328063965 -4.9070000648498535,-12.928999900817871 C-3.7869999408721924,-13.909000396728516 -2.0840001106262207,-13.78600025177002 -1.1109999418258667,-12.66100025177002 C-1.1109999418258667,-12.66100025177002 5.173999786376953,-5.419000148773193 5.173999786376953,-5.419000148773193 C5.72599983215332,-4.784999847412109 5.948999881744385,-3.931999921798706 5.7779998779296875,-3.1089999675750732 C5.7779998779296875,-3.1089999675750732 2.757999897003174,11.446000099182129 2.757999897003174,11.446000099182129 C2.492000102996826,12.718999862670898 1.371999979019165,13.590999603271484 0.12399999797344208,13.590999603271484z"></path></g><g opacity="1" transform="matrix(1,0,0,1,195.56300354003906,182.8260040283203)"><path fill="rgb(0,0,0)" fill-opacity="1" d=" M-2.5829999446868896,19.715999603271484 C-3.8289999961853027,19.715999603271484 -4.948999881744385,18.84600067138672 -5.214000225067139,17.576000213623047 C-10.223999977111816,-6.357999801635742 1.3650000095367432,-18.413000106811523 1.8619999885559082,-18.915000915527344 C2.9049999713897705,-19.974000930786133 4.609000205993652,-19.985000610351562 5.668000221252441,-18.93600082397461 C6.7220001220703125,-17.895000457763672 6.736000061035156,-16.194000244140625 5.697999954223633,-15.13700008392334 C5.250999927520752,-14.67199993133545 -4.320000171661377,-4.433000087738037 0.05400000140070915,16.472000122070312 C0.35899999737739563,17.92799949645996 -0.5740000009536743,19.35300064086914 -2.0280001163482666,19.658000946044922 C-2.2139999866485596,19.697999954223633 -2.4019999504089355,19.715999603271484 -2.5829999446868896,19.715999603271484z"></path></g><g opacity="1" transform="matrix(1,0,0,1,216.68600463867188,215.53399658203125)"><path fill="rgb(0,0,0)" fill-opacity="1" d=" M0.6140000224113464,10.034000396728516 C-0.9819999933242798,10.034000396728516 -4.803999900817871,9.293000221252441 -12.784000396728516,0.46399998664855957 C-13.706999778747559,-0.5609999895095825 -14.041000366210938,-1.9450000524520874 -13.678000450134277,-3.243000030517578 C-13.300000190734863,-4.593999862670898 -12.232000350952148,-5.6529998779296875 -10.822999954223633,-6.078999996185303 C8.38700008392334,-11.824999809265137 10.994000434875488,-9.861000061035156 12.111000061035156,-9.020000457763672 C13.065999984741211,-8.302000045776367 14.51099967956543,-6.563000202178955 13.446999549865723,-2.984999895095825 C11.98799991607666,1.9199999570846558 5.874000072479248,9.694999694824219 1.0920000076293945,10.015999794006348 C0.9629999995231628,10.02400016784668 0.8029999732971191,10.034000396728516 0.6140000224113464,10.034000396728516z M-7.267000198364258,-1.5110000371932983 C-2.9509999752044678,2.9760000705718994 0.12700000405311584,4.590000152587891 0.7400000095367432,4.64300012588501 C1.2109999656677246,4.590000152587891 3.009000062942505,3.546999931335449 5.2170000076293945,0.7870000004768372 C7.127999782562256,-1.6019999980926514 8.085000038146973,-3.694999933242798 8.357999801635742,-4.764999866485596 C6.7779998779296875,-4.627999782562256 2.075000047683716,-4.199999809265137 -7.267000198364258,-1.5110000371932983z"></path></g><g opacity="1" transform="matrix(1,0,0,1,284.1600036621094,169.3730010986328)"><path fill="rgb(0,0,0)" fill-opacity="1" d=" M-10.163000106811523,-11.34000015258789 C-10.163000106811523,-11.34000015258789 -10.01099967956543,11.34000015258789 -10.01099967956543,11.34000015258789 C-10.01099967956543,11.34000015258789 10.163000106811523,-8.555999755859375 10.163000106811523,-8.555999755859375 C10.163000106811523,-8.555999755859375 -10.163000106811523,-11.34000015258789 -10.163000106811523,-11.34000015258789z"></path></g><g opacity="1" transform="matrix(1,0,0,1,252.01300048828125,113.1709976196289)"><path fill="rgb(0,0,0)" fill-opacity="1" d=" M-52.249000549316406,-19.371000289916992 C-52.249000549316406,-19.371000289916992 -54.61600112915039,20.45599937438965 -14.553000450134277,38.553001403808594 C25.510000228881836,56.6510009765625 52.2760009765625,53.0629997253418 52.2760009765625,53.0629997253418 C52.2760009765625,53.0629997253418 49.67399978637695,1.1239999532699585 49.67399978637695,1.1239999532699585 C49.67399978637695,1.1239999532699585 -0.47600001096725464,-53.35200119018555 -0.47600001096725464,-53.35200119018555 C-0.47600001096725464,-53.35200119018555 -45.31100082397461,-39.06399917602539 -45.31100082397461,-39.06399917602539 C-45.31100082397461,-39.06399917602539 -52.249000549316406,-19.371000289916992 -52.249000549316406,-19.371000289916992z"></path></g></g></g></g></g></svg>